<svg width="35" height="35" viewBox="0 0 35 35" fill="none" xmlns="http://www.w3.org/2000/svg">
<path d="M17.5 35C7.85 35 0 27.149 0 17.5C0 7.851 7.85 0 17.5 0C27.15 0 35 7.851 35 17.5C35 27.149 27.15 35 17.5 35ZM17.5 1.438C8.643 1.438 1.438 8.644 1.438 17.5C1.438 26.356 8.643 33.562 17.5 33.562C26.356 33.562 33.562 26.357 33.562 17.5C33.562 8.643 26.356 1.438 17.5 1.438Z" fill="#3E5271"/>
<path d="M22.883 5.08701H17.769H17.232H12.118C11.705 5.08701 11.37 5.42201 11.37 5.83601V13.445C11.37 13.682 11.482 13.906 11.673 14.046L16.781 18.311V19.905L15.54 22.415L12.602 22.844C12.331 22.883 12.107 23.073 12.022 23.333C11.937 23.594 12.008 23.879 12.204 24.07L14.329 26.139L13.825 29.072C13.779 29.343 13.889 29.615 14.111 29.775C14.236 29.867 14.384 29.913 14.534 29.913C14.648 29.913 14.763 29.887 14.869 29.831L17.502 28.444L20.132 29.83C20.371 29.96 20.666 29.938 20.889 29.775C21.111 29.616 21.222 29.342 21.175 29.072L20.672 26.139L22.797 24.07C22.992 23.879 23.064 23.593 22.979 23.333C22.894 23.073 22.669 22.883 22.399 22.844L19.461 22.415L18.22 19.898V18.311L23.329 14.046C23.519 13.906 23.632 13.682 23.632 13.445V5.83601C23.631 5.42201 23.295 5.08701 22.883 5.08701ZM14.503 14.466L12.866 13.068V6.58401H14.503V14.466ZM19.179 23.827L20.748 24.056L19.599 25.175C19.304 25.478 19.171 25.903 19.243 26.313L19.512 27.876L18.094 27.129C17.723 26.944 17.306 26.934 16.898 27.136L15.491 27.877L15.76 26.315C15.832 25.9 15.698 25.472 15.391 25.165L14.253 24.057L15.825 23.828C16.251 23.765 16.616 23.498 16.799 23.12L17.502 21.695L18.202 23.114C18.386 23.496 18.75 23.763 19.179 23.827ZM17.5 17.027L15.845 15.612H15.942V6.58401H17.232H17.769H19.058V15.613H19.156L17.5 17.027ZM22.133 13.068L20.496 14.466V6.58401H22.133V13.068Z" fill="#3E5271"/>
</svg>
