<svg width="35" height="35" viewBox="0 0 35 35" fill="none" xmlns="http://www.w3.org/2000/svg">
<path d="M17.5 0C7.851 0 0 7.851 0 17.5C0 27.15 7.851 35 17.5 35C27.15 35 35 27.15 35 17.5C35 7.851 27.15 0 17.5 0ZM17.5 1.438C25.77 1.438 32.594 7.721 33.463 15.763H26.068C25.76 15.763 25.488 15.957 25.388 16.247L23.95 20.418L22.534 13.786C22.467 13.469 22.195 13.237 21.871 13.218C21.543 13.202 21.251 13.401 21.149 13.708L17.185 25.538L14.068 6.357C14.017 6.038 13.759 5.793 13.439 5.758C13.115 5.717 12.813 5.904 12.692 6.203L8.79 15.865H1.521C2.343 7.774 9.196 1.438 17.5 1.438ZM17.5 33.562C8.644 33.562 1.438 26.357 1.438 17.5C1.438 17.434 1.447 17.37 1.448 17.304H9.274C9.567 17.304 9.831 17.126 9.941 16.854L13.062 9.129L16.233 28.643C16.286 28.969 16.555 29.218 16.885 29.244C16.905 29.246 16.924 29.247 16.944 29.247C17.251 29.247 17.526 29.052 17.625 28.757L21.677 16.662L23.083 23.25C23.15 23.566 23.42 23.799 23.742 23.818C24.082 23.839 24.361 23.638 24.466 23.334L26.581 17.202H33.547C33.548 17.303 33.562 17.4 33.562 17.501C33.562 26.356 26.356 33.562 17.5 33.562Z" fill="#3E5271"/>
</svg>
