<svg width="34" height="44" viewBox="0 0 34 44" fill="none" xmlns="http://www.w3.org/2000/svg">
<path fill-rule="evenodd" clip-rule="evenodd" d="M1.51139 29.4669V2.2111C1.51139 2.04691 1.53643 1.51139 1.86109 1.51139H23.4661C23.4413 1.60662 23.4228 1.70464 23.4228 1.80667V10.5779H32.1937C32.2958 10.5779 32.3928 10.559 32.4884 10.5343C32.4884 10.5454 32.489 10.5498 32.489 10.5612V29.4669H1.51139ZM1.86109 42.3112C1.8076 42.3112 1.75936 42.2917 1.71144 42.2744C1.59394 42.2181 1.51139 42.1003 1.51139 41.9615V30.978H32.489V41.9615C32.489 42.1003 32.4068 42.2175 32.2893 42.2744C32.2413 42.2917 32.1931 42.3112 32.1393 42.3112H1.86109ZM31.3059 9.06654H24.9328V2.69372L31.3059 9.06654ZM33.5844 9.20813L33.0019 8.62561L25.3744 0.99839L24.7919 0.415558C24.5281 0.151815 24.1626 0 23.7885 0H1.86073C0.964688 0 0 0.692287 0 2.21105V29.4669V41.9615V42.3112C0 42.9438 0.636014 43.56 1.38859 43.7545C1.42663 43.7641 1.4628 43.7786 1.50207 43.7863C1.61987 43.8095 1.73984 43.8225 1.86073 43.8225H32.139C32.2598 43.8225 32.3798 43.8095 32.4976 43.7863C32.5369 43.7786 32.5731 43.7641 32.6111 43.7545C33.3637 43.56 34 42.9438 34 42.3112V41.9615V29.4669V10.5612C34 9.98174 33.9304 9.55412 33.5844 9.20813Z" fill="#5C708E"/>
<path fill-rule="evenodd" clip-rule="evenodd" d="M11.2722 36.322C11.1958 36.532 11.0969 36.6952 10.9729 36.8124C10.8489 36.9296 10.7128 37.014 10.5647 37.0653C10.4166 37.1167 10.2667 37.1432 10.1155 37.1432H8.97887V34.1271H9.90831C10.2249 34.1271 10.4797 34.1771 10.673 34.2767C10.8656 34.3763 11.0152 34.5003 11.1225 34.6484C11.2289 34.7965 11.2994 34.9514 11.334 35.1131C11.368 35.2748 11.3853 35.4176 11.3853 35.5416C11.3853 35.8517 11.3476 36.1118 11.2722 36.322ZM11.7425 33.8068C11.4908 33.6005 11.2066 33.4447 10.89 33.342C10.5734 33.2385 10.2531 33.1871 9.92995 33.1871H7.74023V40.8001H8.98011V38.0523H9.89965C10.2985 38.0523 10.6643 37.9939 10.9945 37.8767C11.3244 37.7598 11.6073 37.5944 11.8414 37.3814C12.0755 37.168 12.2579 36.9046 12.389 36.5911C12.5198 36.2772 12.5856 35.9285 12.5856 35.5423C12.5856 35.1774 12.5077 34.8484 12.3528 34.5553C12.1979 34.2625 11.9938 34.0136 11.7425 33.8068Z" fill="#5C708E"/>
<path fill-rule="evenodd" clip-rule="evenodd" d="M18.3278 39.0851C17.9562 39.6222 17.3501 39.8903 16.5101 39.8903H15.2807V34.1263H16.0036C16.596 34.1263 17.078 34.2042 17.45 34.3591C17.8214 34.514 18.116 34.7172 18.3331 34.9688C18.5498 35.2202 18.6958 35.5007 18.7721 35.8105C18.8476 36.1203 18.8856 36.4338 18.8856 36.7504C18.8856 37.7695 18.6995 38.5487 18.3278 39.0851ZM19.2317 34.3022C18.9113 33.9652 18.5085 33.694 18.0227 33.4915C17.5367 33.2893 16.9739 33.1873 16.3339 33.1873H14.0409V40.8002H16.9226C17.0184 40.8002 17.1665 40.7882 17.3669 40.7641C17.566 40.7396 17.7871 40.6852 18.028 40.5987C18.2691 40.5121 18.5183 40.3828 18.7768 40.2109C19.035 40.0384 19.2672 39.8028 19.4741 39.5029C19.6809 39.2029 19.8513 38.8313 19.9855 38.3867C20.12 37.9427 20.1874 37.4068 20.1874 36.7807C20.1874 36.3256 20.1079 35.8831 19.9502 35.453C19.7907 35.0239 19.5517 34.6402 19.2317 34.3022Z" fill="#5C708E"/>
<path fill-rule="evenodd" clip-rule="evenodd" d="M21.9847 40.8002H23.245V37.3707H26.4266V36.5238H23.245V34.1272H26.746V33.1873H21.9847V40.8002Z" fill="#5C708E"/>
<path fill-rule="evenodd" clip-rule="evenodd" d="M24.9854 19.0848C24.7525 19.4103 24.2479 19.4181 24.0711 19.4181C23.6685 19.4181 23.5182 19.1784 22.9023 18.7048C23.41 18.6398 23.889 18.6231 24.2705 18.6231C24.9421 18.6231 25.0654 18.7221 25.1585 18.7719C25.1418 18.8257 25.0979 18.9268 24.9854 19.0848ZM15.2387 19.4467C16.0055 17.6191 16.7188 15.6007 17.2589 13.7316C18.1074 15.2562 19.1268 16.7354 20.1468 17.9202C18.5344 18.299 16.8177 18.8333 15.2387 19.4467ZM16.8005 7.33803C16.833 7.32752 17.5899 8.16977 16.8729 9.768C15.7956 8.66572 16.7263 7.36308 16.8005 7.33803ZM10.6043 24.6567C10.2509 24.3859 10.2713 24.2028 10.2787 24.1342C10.3254 23.714 10.9837 22.9685 12.5983 22.0607C11.3742 24.3215 10.7169 24.6215 10.6043 24.6567ZM24.1231 17.3486C23.4286 17.3486 22.5762 17.4392 21.5858 17.6191C20.2031 16.1517 18.7598 14.009 17.7413 11.9052C18.7518 7.65225 18.2462 7.05025 18.023 6.7661C17.7861 6.46402 17.4513 5.97363 17.0704 5.97363C16.9111 5.97363 16.4761 6.04598 16.3029 6.1038C15.8676 6.24851 15.6335 6.58398 15.4462 7.02149C14.9119 8.27033 15.645 10.3994 16.3988 12.0407C15.7544 14.6045 14.6732 17.6726 13.5369 20.1629C10.6731 21.4745 9.1525 22.7629 9.01491 23.992C8.96513 24.4394 9.07056 25.0958 9.85715 25.686C10.0727 25.8468 10.325 25.9322 10.5881 25.9322C11.2488 25.9322 11.9167 25.4263 12.6897 24.3404C13.2537 23.5486 13.8588 22.4689 14.4904 21.1285C16.5138 20.2436 19.0167 19.4443 21.1604 18.9963C22.3542 20.1425 23.4231 20.7228 24.342 20.7228C25.0188 20.7228 25.5992 20.4115 26.0194 19.8231C26.4569 19.21 26.5565 18.6618 26.314 18.1908C26.0228 17.625 25.3061 17.3486 24.1231 17.3486Z" fill="#5C708E"/>
</svg>
