<svg xmlns="http://www.w3.org/2000/svg" style="display: none;">

    <symbol id="pupil" viewBox="0 0 90 100">
        <path d="M6.40799 60.609C5.35399 60.609 4.24899 60.531 3.09499 60.375C2.51899 60.297 2.01899 59.937 1.76099 59.416C1.50399 58.894 1.52199 58.278 1.80999 57.773C5.06899 52.062 3.69299 47.96 2.36299 43.992C1.25399 40.686 0.107994 37.268 1.93099 33.49C5.80399 25.468 13.988 25.702 17.446 25.87L16.594 29.376C13.274 29.22 7.94799 29.076 5.08299 35.012C3.87899 37.507 4.67399 39.877 5.68099 42.879C6.94199 46.641 8.47599 51.214 6.03499 57.106C9.17799 57.139 11.711 56.417 13.562 54.86C17.509 51.538 17.743 45.218 17.842 42.52L21.34 42.649C21.223 45.811 20.949 53.217 15.815 57.538C13.386 59.581 10.23 60.609 6.40799 60.609Z" fill="currentColor"/>
        <path d="M83.592 60.646C84.646 60.646 85.751 60.568 86.905 60.412C87.481 60.334 87.981 59.974 88.239 59.453C88.496 58.931 88.478 58.315 88.19 57.81C84.931 52.099 86.307 47.997 87.637 44.029C88.746 40.723 89.892 37.305 88.069 33.527C84.196 25.505 76.012 25.739 72.554 25.907L73.406 29.413C76.726 29.257 82.052 29.113 84.917 35.049C86.121 37.544 85.326 39.914 84.319 42.916C83.058 46.678 81.524 51.251 83.965 57.143C80.822 57.176 78.289 56.454 76.438 54.897C72.491 51.575 72.257 45.255 72.158 42.557L68.66 42.686C68.777 45.848 69.051 53.254 74.185 57.575C76.614 59.618 79.77 60.646 83.592 60.646Z" fill="currentColor"/>
        <path d="M80.447 34.246C80.447 29.82 77.007 26.19 72.66 25.87C72.673 26.206 72.685 26.542 72.685 26.881C72.686 12.059 60.626 0 45.803 0H44.301C29.479 0 17.42 12.059 17.42 26.881C17.42 26.542 17.433 26.206 17.445 25.87C13.098 26.19 9.65802 29.82 9.65802 34.246C9.65802 38.814 13.32 42.536 17.861 42.646C20.139 55.175 31.124 64.708 44.3 64.708H45.802C58.98 64.708 69.965 55.176 72.243 42.646C76.785 42.536 80.447 38.814 80.447 34.246ZM13.158 34.246C13.158 31.762 15.021 29.725 17.42 29.404V37.827C17.42 38.252 17.433 38.675 17.452 39.095C15.038 38.788 13.158 36.743 13.158 34.246ZM17.598 40.879C17.6 40.889 17.601 40.899 17.602 40.907C17.601 40.898 17.6 40.889 17.598 40.879ZM69.186 37.827C69.186 50.72 58.697 61.208 45.803 61.208H44.301C31.408 61.208 20.92 50.72 20.92 37.827V26.881C20.92 13.988 31.408 3.5 44.301 3.5H45.803C58.697 3.5 69.186 13.988 69.186 26.881V37.827ZM72.508 40.879C72.506 40.889 72.505 40.899 72.504 40.907C72.505 40.898 72.506 40.889 72.508 40.879ZM72.653 39.095C72.673 38.675 72.685 38.252 72.685 37.827V29.404C75.083 29.724 76.947 31.761 76.947 34.246C76.947 36.743 75.067 38.788 72.653 39.095Z" fill="currentColor"/>
        <path d="M32.854 37.294C34.5109 37.294 35.854 35.9509 35.854 34.294C35.854 32.6372 34.5109 31.294 32.854 31.294C31.1971 31.294 29.854 32.6372 29.854 34.294C29.854 35.9509 31.1971 37.294 32.854 37.294Z" fill="currentColor"/>
        <path d="M57.252 37.294C58.9089 37.294 60.252 35.9509 60.252 34.294C60.252 32.6372 58.9089 31.294 57.252 31.294C55.5952 31.294 54.252 32.6372 54.252 34.294C54.252 35.9509 55.5952 37.294 57.252 37.294Z" fill="currentColor"/>
        <path d="M35.07 60.666V67.646C35.076 68.491 34.449 69.208 33.613 69.312L18.613 71.179C12.737 71.91 8.34102 76.924 8.38602 82.833V100H11.72V82.819C11.689 78.591 14.829 75.007 19.028 74.485L34.03 72.619C36.544 72.306 38.426 70.156 38.405 67.634V60.666H35.07Z" fill="currentColor"/>
        <path d="M71.508 71.262L56.512 69.396C55.673 69.291 55.046 68.577 55.053 67.718V60.666H51.718V67.705C51.699 70.238 53.581 72.388 56.097 72.705L71.097 74.57C75.295 75.093 78.437 78.674 78.403 82.916V100H81.736V82.928C81.78 77.009 77.384 71.99 71.508 71.262Z" fill="currentColor"/>
        <path d="M57.87 71.926L57.783 72.947C57.262 79.543 51.668 84.708 45.053 84.71C38.438 84.708 32.846 79.542 32.321 72.939L32.228 71.845L28.929 72.255L29.01 73.21C29.67 81.52 36.719 88.03 45.055 88.032C53.393 88.03 60.438 81.519 61.096 73.22L61.171 72.337L57.87 71.926Z" fill="currentColor"/>
        <path d="M18.18 100H21.502C21.502 96.07 24.593 73.254 24.593 73.254L21.286 73.584L18.18 100Z" fill="currentColor"/>
        <path d="M68.819 73.584L65.512 73.254C65.512 73.254 68.603 96.07 68.603 100H71.925L68.819 73.584Z" fill="currentColor"/>
        <path d="M71.054 29.376C57.243 29.376 48.163 21.042 45.064 17.496C41.96 21.041 32.866 29.376 19.054 29.376V25.876C34.939 25.876 43.304 14.158 43.61 13.702C43.934 13.218 44.481 12.925 45.065 12.925C45.067 12.925 45.069 12.925 45.071 12.925C45.656 12.927 46.204 13.22 46.526 13.708C46.829 14.16 55.171 25.876 71.054 25.876V29.376Z" fill="currentColor"/>
        <path d="M55.635 45.995C54.838 45.446 53.748 45.649 53.201 46.444C53.107 46.574 50.658 49.906 45.054 49.932C39.45 49.906 37 46.574 36.907 46.444C36.36 45.649 35.27 45.446 34.473 45.995C33.677 46.543 33.476 47.632 34.024 48.429C34.165 48.632 37.538 53.405 45.054 53.432C52.571 53.405 55.944 48.632 56.084 48.429C56.632 47.632 56.431 46.543 55.635 45.995Z" fill="currentColor"/>
    </symbol>


    <symbol id="baby" viewBox="0 0 100 100">
        <rect width="100" height="100" fill="white"/>
        <path d="M49.595 0C32.725 0 19 13.724 19 30.596V69.404C19 86.274 32.725 100 49.595 100C66.464 100 80.191 86.274 80.191 69.404V30.596C80.191 13.724 66.464 0 49.595 0ZM49.595 3.381C64.601 3.381 76.81 15.588 76.81 30.596V42.259C74.509 46.222 67.527 55.016 49.603 58.895C31.64 55.008 24.665 46.185 22.381 42.233V30.596C22.381 15.588 34.589 3.381 49.595 3.381ZM49.595 96.619C34.589 96.619 22.381 84.411 22.381 69.403V48.329C33.865 61.988 56.622 64.235 70.296 64.235C72.819 64.235 75.032 64.159 76.81 64.064V69.404C76.81 84.412 64.601 96.619 49.595 96.619ZM76.81 60.555C69.601 60.979 63.294 60.811 57.798 60.21C65.124 57.824 71.964 54.094 76.81 48.34V60.555Z" fill="currentColor"/>
        <path fill-rule="evenodd" clip-rule="evenodd" d="M65.702 20.718C62.8947 15.6778 58.0857 12.0497 52.4461 11.1238L54.582 8.988C55.266 8.304 55.266 7.197 54.582 6.513C53.898 5.829 52.791 5.829 52.107 6.513L49.345 9.276L46.583 6.513C45.9 5.829 44.792 5.829 44.108 6.513C43.424 7.197 43.424 8.304 44.108 8.988L46.3189 11.1989C40.8623 12.2334 36.2235 15.8048 33.487 20.718C33.222 20.69 32.953 20.671 32.68 20.671C28.679 20.671 25.423 23.927 25.423 27.928C25.423 31.446 27.938 34.385 31.264 35.046C33.062 44.086 40.595 50.892 49.595 50.892C58.595 50.892 66.128 44.086 67.925 35.046C71.251 34.384 73.767 31.445 73.767 27.928C73.767 23.927 70.511 20.671 66.507 20.671C66.236 20.671 65.968 20.69 65.702 20.718ZM68.322 31.248C67.779 31.546 67.168 31.729 66.508 31.729C65.916 31.729 65.362 31.581 64.862 31.337C64.831 32.555 64.676 33.736 64.417 34.875C62.763 42.075 56.755 47.434 49.597 47.434C42.439 47.434 36.431 42.076 34.777 34.874C34.516 33.736 34.361 32.555 34.331 31.336C33.83 31.58 33.275 31.729 32.682 31.729C32.023 31.729 31.411 31.545 30.87 31.249C29.692 30.603 28.881 29.365 28.881 27.928C28.881 26.082 30.206 24.541 31.955 24.201C32.19 24.155 32.432 24.128 32.681 24.128C33.685 24.128 34.593 24.525 35.274 25.164C35.665 24.023 36.162 22.939 36.764 21.933C39.49 17.376 44.219 14.349 49.596 14.349C54.972 14.349 59.701 17.376 62.428 21.933C63.03 22.94 63.528 24.023 63.918 25.163C64.598 24.525 65.506 24.128 66.508 24.128C66.758 24.128 67 24.155 67.237 24.201C68.987 24.542 70.311 26.082 70.311 27.928C70.31 29.365 69.499 30.603 68.322 31.248ZM42.618 29.612C43.7225 29.612 44.618 28.7166 44.618 27.612C44.618 26.5074 43.7225 25.612 42.618 25.612C41.5134 25.612 40.618 26.5074 40.618 27.612C40.618 28.7166 41.5134 29.612 42.618 29.612ZM56.572 29.612C57.6765 29.612 58.572 28.7166 58.572 27.612C58.572 26.5074 57.6765 25.612 56.572 25.612C55.4674 25.612 54.572 26.5074 54.572 27.612C54.572 28.7166 55.4674 29.612 56.572 29.612Z" fill="currentColor"/>
        <path d="M49.595 49.142C53.7371 49.142 57.095 45.7841 57.095 41.642C57.095 37.4998 53.7371 34.142 49.595 34.142C45.4528 34.142 42.095 37.4998 42.095 41.642C42.095 45.7841 45.4528 49.142 49.595 49.142Z" fill="white"/>
        <path d="M49.595 50.892C44.494 50.892 40.345 46.743 40.345 41.642C40.345 36.541 44.494 32.392 49.595 32.392C54.697 32.392 58.845 36.541 58.845 41.642C58.845 46.743 54.697 50.892 49.595 50.892ZM49.595 35.892C46.425 35.892 43.845 38.471 43.845 41.642C43.845 44.813 46.425 47.392 49.595 47.392C52.765 47.392 55.345 44.813 55.345 41.642C55.345 38.471 52.765 35.892 49.595 35.892Z" fill="currentColor"/>
        <path d="M45.7679 50.396C45.7679 52.508 47.4809 54.224 49.5929 54.224C51.7079 54.224 53.4229 52.508 53.4229 50.396C53.4229 48.281 49.8469 41.224 49.5929 41.224C49.3409 41.225 45.7679 48.281 45.7679 50.396Z" fill="white"/>
        <path d="M49.5929 55.975C46.5189 55.975 44.0179 53.473 44.0179 50.397C44.0179 49.959 44.0179 48.626 45.9939 44.292C48.0899 39.695 48.5269 39.476 49.5939 39.476C50.6609 39.476 51.0999 39.696 53.1959 44.292C55.1749 48.625 55.1749 49.959 55.1749 50.397C55.1729 53.473 52.6689 55.975 49.5929 55.975ZM49.5949 44.845C48.6209 46.901 47.5179 49.551 47.5179 50.397C47.5179 51.543 48.4489 52.475 49.5929 52.475C50.7389 52.475 51.6729 51.542 51.6729 50.397C51.6729 49.55 50.5689 46.899 49.5949 44.845Z" fill="currentColor"/>
    </symbol>

    <symbol id="toddler" viewBox="0 0 100 100">
        <rect width="100" height="100" fill="white"/>
        <g clip-path="url(#clip0)">
            <path d="M76.725 69.761L67.903 68.571C69.19 67.637 70.415 66.601 71.563 65.454C74.682 62.334 77.024 58.653 78.499 54.648C83.774 54.254 87.948 49.848 87.948 44.474C87.948 39.74 84.702 35.758 80.321 34.61V29.822C80.32 13.378 66.943 0 50.5 0C34.057 0 20.679 13.378 20.679 29.821V34.609C16.298 35.756 13.052 39.739 13.052 44.473C13.052 49.85 17.23 54.257 22.507 54.648C22.505 54.642 22.503 54.635 22.5 54.629C24.57 60.265 28.29 65.112 33.079 68.572L24.292 69.76C18.297 70.504 13.781 75.624 13.786 81.662V100H17.21V81.66C17.207 78.496 18.945 75.693 21.564 74.208C22.346 75.115 23.398 75.884 24.39 76.598C25.417 77.338 26.698 78.259 26.937 78.908C27.166 79.524 26.762 81.039 26.437 82.256C25.848 84.46 25.181 86.958 26.579 88.799C27.953 90.608 30.512 90.66 32.77 90.706C34.05 90.732 35.644 90.765 36.179 91.172C36.729 91.589 37.205 93.121 37.588 94.353C38.259 96.518 39.021 98.971 41.155 99.761C43.366 100.582 45.552 99.137 47.481 97.865C48.521 97.178 49.814 96.325 50.497 96.325C51.18 96.325 52.473 97.179 53.512 97.865C55.049 98.88 56.748 100.002 58.494 100.002C58.939 100.002 59.389 99.929 59.84 99.762C61.973 98.972 62.736 96.519 63.408 94.353C63.791 93.123 64.267 91.59 64.818 91.172C65.351 90.767 66.945 90.734 68.226 90.709C70.484 90.663 73.042 90.611 74.419 88.801C75.815 86.96 75.149 84.462 74.56 82.258C74.236 81.041 73.831 79.528 74.06 78.911C74.3 78.262 75.581 77.34 76.609 76.599C77.601 75.883 78.654 75.116 79.437 74.206C82.052 75.69 83.792 78.495 83.791 81.663V100H87.213V81.664C87.219 75.624 82.703 70.506 76.725 69.761ZM80.32 44.393V38.269C82.75 39.285 84.461 41.683 84.461 44.474C84.461 47.538 82.399 50.126 79.59 50.934C80.066 48.809 80.32 46.619 80.32 44.393ZM16.539 44.474C16.539 41.683 18.25 39.284 20.68 38.269V44.393C20.68 46.642 20.943 48.829 21.417 50.935C18.604 50.13 16.539 47.541 16.539 44.474ZM21.899 52.801C21.901 52.809 21.903 52.817 21.905 52.824C21.903 52.816 21.901 52.809 21.899 52.801ZM24.166 44.393V29.821C24.166 15.3 35.979 3.486 50.5 3.486C65.019 3.486 76.833 15.299 76.833 29.821V44.392C76.833 51.393 74.085 57.997 69.097 62.988C64.107 67.978 57.503 70.726 50.5 70.726C35.979 70.727 24.166 58.913 24.166 44.393ZM61.635 72.05C60.254 76.831 55.42 80.918 50.499 80.918C45.577 80.918 40.745 76.829 39.364 72.048C42.807 73.44 46.564 74.213 50.501 74.213C54.375 74.213 58.139 73.466 61.635 72.05ZM74.572 73.769C73.013 74.891 71.402 76.053 70.791 77.697C70.178 79.354 70.695 81.287 71.193 83.156C71.498 84.298 72.007 86.21 71.642 86.692C71.287 87.158 69.326 87.198 68.156 87.221C66.185 87.26 64.146 87.301 62.709 88.393C61.27 89.487 60.664 91.434 60.08 93.317C59.732 94.431 59.152 96.297 58.629 96.492C58.07 96.683 56.42 95.606 55.434 94.955C53.856 93.914 52.225 92.837 50.497 92.837C48.768 92.837 47.138 93.914 45.561 94.955C44.573 95.606 42.918 96.685 42.366 96.492C41.842 96.298 41.263 94.432 40.917 93.318C40.333 91.435 39.727 89.487 38.288 88.394C36.851 87.301 34.813 87.259 32.842 87.22C31.671 87.196 29.711 87.156 29.356 86.691C28.99 86.209 29.501 84.297 29.806 83.156C30.306 81.286 30.822 79.353 30.208 77.696C29.599 76.051 27.987 74.89 26.429 73.768C26.156 73.572 25.812 73.322 25.465 73.056L35.706 71.672C36.959 78.486 43.55 84.404 50.5 84.404C57.451 84.404 64.042 78.486 65.296 71.673L75.54 73.055C75.191 73.321 74.846 73.572 74.572 73.769Z" fill="currentColor"/>
            <path d="M34.567 39.911C36.3619 39.911 37.817 38.4559 37.817 36.661C37.817 34.8661 36.3619 33.411 34.567 33.411C32.7721 33.411 31.317 34.8661 31.317 36.661C31.317 38.4559 32.7721 39.911 34.567 39.911Z" fill="currentColor"/>
            <path d="M66.432 39.911C68.2269 39.911 69.682 38.4559 69.682 36.661C69.682 34.8661 68.2269 33.411 66.432 33.411C64.6371 33.411 63.182 34.8661 63.182 36.661C63.182 38.4559 64.6371 39.911 66.432 39.911Z" fill="currentColor"/>
            <path d="M53 44.587H48C47.034 44.587 46.25 43.804 46.25 42.837C46.25 41.87 47.034 41.087 48 41.087H53C53.967 41.087 54.75 41.87 54.75 42.837C54.75 43.804 53.967 44.587 53 44.587Z" fill="currentColor"/>
            <path d="M38.75 50.702V52.452C38.75 58.381 44.572 63.204 50.499 63.204C56.428 63.204 62.25 58.381 62.25 52.452V50.702H38.75ZM50.499 59.704C47.104 59.704 43.248 57.358 42.463 54.202H48.75V57.171H52.25V54.202H58.537C57.752 57.358 53.895 59.704 50.499 59.704Z" fill="currentColor"/>
            <path d="M43.567 25.172C41.537 25.172 39.589 24.271 37.776 22.493C36.092 20.842 35.328 18.775 35.565 16.517C36.39 8.67304 49.344 0.356037 49.475 0.273037C50.041 -0.0889632 50.764 -0.0909632 51.335 0.262037C51.468 0.343037 64.511 8.51104 65.423 16.35C65.687 18.606 64.944 20.681 63.28 22.351C61.464 24.171 59.501 25.093 57.444 25.093C54.405 25.093 52.005 23.065 50.523 21.507C49.048 23.096 46.642 25.172 43.567 25.172ZM50.426 3.84104C46.387 6.61504 39.506 12.515 39.047 16.883C38.92 18.091 39.295 19.079 40.227 19.994C41.363 21.107 42.486 21.672 43.567 21.672C45.853 21.672 47.872 19.27 48.842 18.115C48.982 17.949 49.102 17.806 49.201 17.695C49.531 17.323 50.003 17.11 50.5 17.107C50.979 17.084 51.471 17.312 51.804 17.68C51.904 17.79 52.025 17.931 52.167 18.095C53.142 19.231 55.173 21.593 57.444 21.593C58.538 21.593 59.667 21.017 60.801 19.879C61.723 18.954 62.086 17.962 61.946 16.755C61.439 12.39 54.494 6.56804 50.426 3.84104Z" fill="currentColor"/>
        </g>
        <defs>
            <clipPath id="clip0">
                <rect width="75" height="100" fill="white" transform="translate(13)"/>
            </clipPath>
        </defs>
    </symbol>

    <symbol id="adult" viewBox="0 0 100 100">
        <rect width="100" height="100" fill="white"/>
        <path d="M43.4 30.479C43.4 32.301 41.922 33.778 40.1 33.778C38.278 33.778 36.8 32.301 36.8 30.479C36.8 28.656 38.279 27.178 40.101 27.178C41.923 27.178 43.4 28.656 43.4 30.479Z" fill="currentColor"/>
        <path d="M63.2 30.479C63.2 32.301 61.721 33.778 59.9 33.778C58.077 33.778 56.601 32.301 56.601 30.479C56.601 28.656 58.077 27.178 59.9 27.178C61.722 27.178 63.2 28.656 63.2 30.479Z" fill="currentColor"/>
        <path d="M50 53.538C48.048 53.538 46.159 52.767 44.819 51.424C44.136 50.74 44.138 49.632 44.822 48.95C45.507 48.267 46.615 48.268 47.298 48.953C47.986 49.643 48.971 50.038 50 50.038C51.029 50.038 52.015 49.642 52.702 48.953C53.385 48.268 54.493 48.267 55.178 48.95C55.862 49.632 55.864 50.741 55.181 51.424C53.841 52.768 51.952 53.538 50 53.538Z" fill="currentColor"/>
        <path d="M75.651 69.799L64.96 68.514C63.657 68.337 62.671 67.211 62.669 65.901V62.607C65.866 60.374 68.481 57.294 70.128 53.585C71.108 51.375 71.604 49.029 71.599 46.615V36.95C74.955 36.618 77.585 33.781 77.585 30.339C77.585 28.161 76.519 26.246 74.897 25.034L75.209 22.32C75.815 15.54 71.851 9.287 65.52 6.926C62.06 2.58 56.734 0 51.166 0H50.5H49.5H48.834C43.266 0 37.94 2.58 34.48 6.925C28.149 9.285 24.184 15.538 24.791 22.319L25.104 25.034C23.481 26.245 22.415 28.161 22.415 30.339C22.415 33.781 25.046 36.618 28.401 36.95V45.932C28.399 48.837 29.141 51.715 30.557 54.258L31.168 55.349C32.719 58.14 34.842 60.495 37.334 62.321V65.898C37.33 67.212 36.344 68.338 35.047 68.515L24.346 69.8C16.926 70.792 11.332 77.185 11.332 84.667V92.667V100H14.666V94.334H26.666V100H29.998V92.666C29.998 91.745 29.252 91 28.332 91H14.667V84.666C14.667 78.845 19.017 73.873 24.786 73.104L32.98 72.121L36.027 87.966C36.127 88.518 36.498 88.983 37.015 89.202C37.224 89.291 37.447 89.335 37.665 89.335C37.989 89.335 38.313 89.239 38.591 89.056L48.279 83.567L48.332 83.627V100H51.666V83.624L51.719 83.563L61.407 89.052C61.686 89.238 62.011 89.333 62.333 89.333C62.554 89.333 62.776 89.289 62.983 89.198C63.501 88.979 63.872 88.513 63.971 87.962L67.019 72.118L75.21 73.102C80.981 73.872 85.331 78.844 85.331 84.665V91H71.667C70.745 91 69.999 91.745 69.999 92.666V100H73.333V94.334H85.333V100H88.667V92.666V84.666C88.667 77.184 83.073 70.79 75.651 69.799ZM68.276 34.547L61.82 45.251C61.582 45.663 61.142 45.918 60.624 45.918C60.103 45.908 59.752 45.71 59.495 45.318C57.643 42.576 54.562 39.931 51.247 39.916H48.754C48.742 39.916 48.731 39.916 48.719 39.916C45.394 39.916 42.299 42.559 40.424 45.333C40.181 45.7 39.776 45.918 39.369 45.918H39.367C38.903 45.908 38.471 45.651 38.245 45.258L31.724 34.549V25.278C35.807 22.986 38.909 19.663 40.459 17.766C43.487 19.786 51.386 23.872 68.276 26.358V34.547ZM71.599 33.593V27.081C73.117 27.388 74.261 28.731 74.261 30.338C74.261 31.943 73.116 33.287 71.599 33.593ZM28.401 33.593C26.884 33.286 25.739 31.943 25.739 30.338C25.739 28.731 26.885 27.388 28.401 27.081V33.593ZM28.238 23.112L28.112 22.019C27.628 16.614 30.883 11.635 36.031 9.914C36.35 9.808 36.631 9.604 36.834 9.334C39.652 5.578 44.138 3.334 48.834 3.334H49.5H50.5H51.166C55.862 3.334 60.348 5.578 63.166 9.334C63.369 9.605 63.649 9.808 63.969 9.914C69.116 11.636 72.372 16.614 71.888 22.019L71.741 23.298C48.161 20.289 41.412 14.127 41.359 14.076C40.992 13.713 40.476 13.529 39.967 13.579C39.452 13.627 38.985 13.9 38.691 14.325C38.646 14.389 34.328 20.521 28.238 23.112ZM34.069 53.725L33.458 52.637C32.322 50.592 31.722 48.272 31.724 45.934V40.956L35.354 46.917C36.166 48.32 37.674 49.215 39.328 49.25C39.333 49.25 39.337 49.25 39.34 49.25C40.902 49.25 42.347 48.473 43.198 47.185C44.439 45.347 46.503 43.252 48.726 43.252C48.735 43.252 48.741 43.252 48.749 43.252H51.24C53.447 43.26 55.5 45.357 56.723 47.169C57.588 48.479 59.027 49.252 60.551 49.252C60.59 49.252 60.666 49.25 60.666 49.25C62.329 49.25 63.878 48.355 64.716 46.902L68.276 40.999V46.618C68.28 48.567 67.881 50.458 67.089 52.24C64.131 58.905 57.506 63.22 50.215 63.231C43.516 63.228 37.329 59.588 34.069 53.725ZM38.854 84.875L36.285 71.635C36.691 71.521 37.082 71.376 37.447 71.184L46.035 80.998L38.854 84.875ZM49.999 80.469L39.853 68.874C40.365 67.991 40.665 66.977 40.667 65.9V64.337C43.594 65.766 46.849 66.552 50.218 66.553C53.428 66.549 56.529 65.836 59.335 64.536V65.903C59.337 66.976 59.637 67.989 60.147 68.869L49.999 80.469ZM61.146 84.873L53.966 80.996L62.553 71.182C62.918 71.374 63.31 71.519 63.716 71.633L61.146 84.873Z" fill="currentColor"/>
    </symbol>

    <symbol id="old" viewBox="0 0 100 100">
        <g clip-path="url(#clip0)">
            <rect width="100" height="100" fill="white"/>
            <path d="M42.911 35.333C42.911 36.713 41.792 37.833 40.411 37.833C39.03 37.833 37.911 36.713 37.911 35.333C37.911 33.953 39.03 32.833 40.411 32.833C41.792 32.833 42.911 33.953 42.911 35.333Z" fill="currentColor"/>
            <path d="M52.5 84.075C52.5 85.455 51.381 86.575 50.001 86.575C48.62 86.575 47.501 85.455 47.501 84.075C47.501 82.695 48.62 81.575 50.001 81.575C51.381 81.575 52.5 82.695 52.5 84.075Z" fill="currentColor"/>
            <path d="M52.75 94.825C52.75 96.205 51.631 97.325 50.251 97.325C48.87 97.325 47.751 96.205 47.751 94.825C47.751 93.445 48.87 92.325 50.251 92.325C51.631 92.325 52.75 93.445 52.75 94.825Z" fill="currentColor"/>
            <path d="M62.088 35.333C62.088 36.713 60.969 37.833 59.588 37.833C58.209 37.833 57.088 36.713 57.088 35.333C57.088 33.953 58.209 32.833 59.588 32.833C60.969 32.833 62.088 33.953 62.088 35.333Z" fill="currentColor"/>
            <path d="M54.531 46.479C51.607 47.455 48.3911 47.455 45.4711 46.479L44.399 49.68C46.204 50.284 48.102 50.585 50.001 50.585C51.897 50.585 53.793 50.283 55.6 49.68L54.531 46.479Z" fill="currentColor"/>
            <path d="M26.552 81.575V86.204L26.376 86.555C24.3 90.707 23.202 95.358 23.202 99.999H26.552C26.552 95.874 27.527 91.742 29.376 88.053L29.726 87.35C29.843 87.118 29.904 86.86 29.904 86.6V81.576H26.552V81.575Z" fill="currentColor"/>
            <path d="M73.623 86.555L73.449 86.204V81.575H70.1V86.6C70.1 86.86 70.161 87.118 70.276 87.35L70.63 88.053C72.478 91.744 73.452 95.874 73.45 100H76.8C76.801 95.357 75.705 90.709 73.623 86.555Z" fill="currentColor"/>
            <path d="M59.588 27.333C57.088 27.333 54.854 28.491 53.387 30.298C50.368 29.125 48.023 29.51 46.485 30.147C45.018 28.428 42.842 27.333 40.413 27.333C36.007 27.333 32.422 30.922 32.422 35.333C32.422 39.744 36.007 43.333 40.413 43.333C44.818 43.333 48.403 39.744 48.403 35.333C48.403 34.612 48.299 33.916 48.119 33.25C48.949 32.986 50.189 32.872 51.833 33.445C51.686 34.051 51.599 34.681 51.599 35.332C51.599 39.743 55.185 43.332 59.589 43.332C63.995 43.332 67.581 39.743 67.581 35.332C67.581 30.921 63.994 27.333 59.588 27.333ZM40.412 40.133C37.768 40.133 35.617 37.98 35.617 35.333C35.617 32.686 37.768 30.532 40.412 30.532C43.055 30.532 45.207 32.686 45.207 35.333C45.207 37.98 43.055 40.133 40.412 40.133ZM59.588 40.133C56.945 40.133 54.795 37.98 54.795 35.333C54.795 32.686 56.945 30.532 59.588 30.532C62.233 30.532 64.383 32.686 64.383 35.333C64.383 37.98 62.232 40.133 59.588 40.133Z" fill="currentColor"/>
            <path d="M79.218 68.413C80.972 65.26 81.47 62.22 80.668 59.371C79.754 56.119 77.336 53.826 75.238 52.381C76.154 51.214 77.123 49.505 77.293 47.366C77.49 44.89 76.602 42.442 74.652 40.073C75.875 38.864 76.634 37.186 76.634 35.334C76.634 33.729 76.064 32.254 75.116 31.102C75.559 28.646 75.749 24.346 75.749 22.75C75.75 9.78 64.68 0 50.001 0C35.321 0 24.251 9.78 24.251 22.75C24.251 24.345 24.439 28.647 24.882 31.103C23.935 32.254 23.365 33.728 23.365 35.333C23.365 37.186 24.124 38.863 25.346 40.072C23.397 42.441 22.508 44.889 22.705 47.365C22.877 49.504 23.846 51.213 24.76 52.38C22.662 53.825 20.244 56.118 19.33 59.37C18.53 62.219 19.029 65.26 20.781 68.413C16.54 71.467 13.375 76.249 13.377 81.1V100H16.707V81.1C16.705 75.232 23.088 69.254 28.903 68.52L30.055 68.348C30.784 73.25 32.738 76.48 35.905 77.911C37.154 78.476 38.485 78.703 39.82 78.703C43.966 78.703 48.138 76.512 49.998 75.393C51.859 76.511 56.031 78.703 60.177 78.703C61.511 78.703 62.843 78.475 64.091 77.911C67.257 76.479 69.213 73.25 69.942 68.349L71.097 68.522C76.911 69.254 83.294 75.232 83.292 81.1V100H86.622V81.1C86.624 76.248 83.461 71.467 79.218 68.413ZM73.305 35.333C73.305 37.171 71.813 38.666 69.977 38.666H69.308L69.715 32H69.977C71.812 32 73.305 33.495 73.305 35.333ZM50.001 3.5C62.684 3.5 72.25 11.776 72.25 22.75C72.25 24.132 72.118 26.881 71.89 28.95C71.284 28.768 70.642 28.667 69.977 28.667H69.973V25.916C69.973 21.328 66.241 17.594 61.651 17.594H58.321C57.77 17.594 57.255 17.867 56.946 18.323L56.372 19.167C54.946 21.304 52.563 22.584 50.004 22.587C47.438 22.584 45.053 21.306 43.621 19.155L43.057 18.322C42.746 17.866 42.231 17.593 41.68 17.593H38.35C33.762 17.593 30.03 21.326 30.03 25.915V27.784L30.029 28.666H30.026C29.36 28.666 28.718 28.767 28.112 28.95C27.884 26.881 27.753 24.132 27.753 22.75C27.751 11.776 37.315 3.5 50.001 3.5ZM50.028 70.822C46.287 70.822 43.13 69.535 40.035 66.747C41.983 66.04 43.343 64.178 43.327 62.033V59.785C45.407 60.56 47.65 61 50 61C52.351 61 54.595 60.56 56.676 59.784V62.021C56.659 64.188 58.035 66.066 60.004 66.763C56.897 69.574 53.812 70.822 50.028 70.822ZM50 57.666C41.55 57.666 34.638 51.045 34.266 42.565L33.357 28.677V25.916C33.357 23.163 35.597 20.923 38.349 20.923H40.798L40.857 21.012C42.898 24.078 46.314 25.911 50.002 25.916C53.683 25.911 57.097 24.077 59.132 21.026L59.2 20.923H61.649C64.403 20.923 66.643 23.163 66.643 25.916V28.677L65.733 42.594C65.361 51.045 58.449 57.666 50 57.666ZM30.024 32H30.286L30.693 38.667H30.025C28.188 38.667 26.695 37.172 26.695 35.334C26.694 33.495 28.188 32 30.024 32ZM28.486 65.213C26.903 65.413 25.317 65.916 23.794 66.635C22.542 64.347 22.166 62.222 22.7 60.319C23.573 57.214 26.622 55.206 28.36 54.286C28.885 54.007 29.231 53.476 29.28 52.884C29.331 52.29 29.071 51.708 28.598 51.345C28.577 51.328 26.381 49.613 26.194 47.06C26.069 45.38 26.845 43.617 28.476 41.812C28.975 41.93 29.491 42 30.024 42H30.896L30.941 42.74C31.231 49.308 34.788 54.949 39.997 58.16V62.047C40.002 62.892 39.376 63.609 38.542 63.713L28.486 65.213ZM37.342 74.72C35.33 73.808 34.049 71.481 33.51 67.832L35.802 67.49C38.864 70.804 42.04 72.856 45.562 73.766C42.986 74.907 39.718 75.797 37.342 74.72ZM62.656 74.72C60.284 75.796 57.025 74.912 54.453 73.776C57.981 72.872 61.167 70.82 64.245 67.5L66.488 67.834C65.948 71.48 64.668 73.808 62.656 74.72ZM76.205 66.635C74.681 65.916 73.094 65.412 71.51 65.213L61.459 63.713C60.623 63.609 59.998 62.892 60.004 62.033V58.162C65.213 54.953 68.77 49.319 69.057 42.768L69.104 42H69.977C70.51 42 71.026 41.93 71.523 41.811C73.157 43.615 73.932 45.379 73.807 47.059C73.618 49.612 71.422 51.328 71.409 51.338C70.93 51.697 70.667 52.277 70.714 52.875C70.761 53.473 71.11 54.004 71.642 54.285C73.38 55.205 76.427 57.213 77.3 60.318C77.833 62.222 77.459 64.347 76.205 66.635Z" fill="currentColor"/>
        </g>
        <defs>
            <clipPath id="clip0">
                <rect width="100" height="100" fill="white"/>
            </clipPath>
        </defs>
    </symbol>




</svg>


