<svg width="35" height="35" viewBox="0 0 35 35" fill="none" xmlns="http://www.w3.org/2000/svg">
<path d="M17.5 35C7.851 35 0 27.15 0 17.5C0 7.851 7.851 0 17.5 0C27.15 0 35 7.851 35 17.5C35 27.15 27.15 35 17.5 35ZM17.5 1.438C8.644 1.438 1.438 8.644 1.438 17.5C1.438 26.356 8.644 33.562 17.5 33.562C26.356 33.562 33.562 26.356 33.562 17.5C33.562 8.644 26.356 1.438 17.5 1.438Z" fill="#3E5271"/>
<path d="M27.359 10.144L29.988 12.572L30.964 11.515L27.128 7.973C26.854 7.719 26.428 7.719 26.152 7.973L22.316 11.516L23.293 12.573L25.921 10.146V11.943L22.491 15.111H16.752V10.145L19.38 12.572L20.357 11.515L16.753 8.186V6.488L19.381 8.916L20.358 7.859L16.523 4.317C16.248 4.063 15.822 4.063 15.547 4.317L11.712 7.86L12.688 8.917L15.316 6.489V8.187L11.712 11.516L12.688 12.573L15.316 10.145V15.111H12.171C11.915 15.111 11.677 15.248 11.548 15.47L5.633 25.698C5.504 25.92 5.504 26.194 5.633 26.417C5.761 26.64 5.99901 26.776 6.25601 26.776H28.687C28.943 26.776 29.181 26.639 29.31 26.417C29.438 26.194 29.438 25.92 29.31 25.698L27.36 22.325V13.899L29.989 16.327L30.965 15.271L27.361 11.942V10.144H27.359ZM11.53 25.338H7.502L11.53 18.372V25.338ZM12.968 25.338V18.426L17.115 25.338H12.968ZM18.792 25.338L13.519 16.548H22.358L27.439 25.338H18.792ZM23.684 15.967L25.921 13.9V19.837L23.684 15.967Z" fill="#3E5271"/>
</svg>
