<svg width="35" height="35" viewBox="0 0 35 35" fill="none" xmlns="http://www.w3.org/2000/svg">
<path d="M17.5 35C7.851 35 0 27.15 0 17.5C0 7.851 7.851 0 17.5 0C27.15 0 35 7.851 35 17.5C35 27.15 27.15 35 17.5 35ZM17.5 1.438C8.644 1.438 1.438 8.644 1.438 17.5C1.438 26.355 8.644 33.562 17.5 33.562C26.355 33.562 33.562 26.355 33.562 17.5C33.562 8.644 26.355 1.438 17.5 1.438Z" fill="#3E5271"/>
<path d="M31.062 18.194C30.937 18.037 30.754 17.94 30.555 17.92L20.876 17.005C20.738 16.132 20.272 15.376 19.605 14.851L23.578 5.895C23.66 5.712 23.663 5.505 23.588 5.32C23.513 5.135 23.365 4.988 23.181 4.914C19.516 3.445 15.482 3.445 11.818 4.914C11.633 4.989 11.486 5.135 11.411 5.32C11.336 5.505 11.339 5.713 11.42 5.895L15.4 14.845C14.73 15.369 14.26 16.129 14.122 17.005L4.44402 17.92C4.24502 17.94 4.06302 18.037 3.93802 18.194C3.81302 18.351 3.75802 18.55 3.78402 18.748C4.30002 22.663 6.27902 26.178 9.35702 28.651C9.48802 28.756 9.65102 28.812 9.81702 28.812C9.84702 28.812 9.87902 28.81 9.91002 28.806C10.108 28.781 10.287 28.675 10.406 28.517L16.224 20.717C16.619 20.876 17.049 20.968 17.5 20.968C17.951 20.968 18.38 20.876 18.776 20.717L24.593 28.517C24.713 28.675 24.892 28.781 25.09 28.806C25.12 28.81 25.152 28.812 25.183 28.812C25.35 28.812 25.512 28.756 25.644 28.651C28.721 26.179 30.7 22.663 31.214 18.748C31.242 18.551 31.187 18.352 31.062 18.194ZM13.083 6.014C15.958 5.039 19.043 5.039 21.918 6.014L18.285 14.206C18.031 14.146 17.771 14.107 17.5 14.107C17.232 14.107 16.975 14.145 16.724 14.203L13.083 6.014ZM9.69602 27.011C7.43602 24.984 5.92302 22.293 5.36202 19.311L14.216 18.476C14.368 19.008 14.639 19.491 15.011 19.885L9.69602 27.011ZM15.54 17.538C15.54 16.458 16.419 15.578 17.5 15.578C18.581 15.578 19.459 16.458 19.459 17.538C19.459 18.62 18.58 19.498 17.5 19.498C16.419 19.498 15.54 18.619 15.54 17.538ZM25.306 27.011L19.991 19.885C20.361 19.49 20.632 19.008 20.785 18.476L29.639 19.311C29.078 22.293 27.564 24.983 25.306 27.011Z" fill="#3E5271"/>
</svg>
