<svg width="100" height="100" viewBox="0 0 100 100" fill="none" xmlns="http://www.w3.org/2000/svg">
    <g clip-path="url(#clip0)">
        <path d="M42.911 35.333C42.911 36.713 41.792 37.833 40.411 37.833C39.03 37.833 37.911 36.713 37.911 35.333C37.911 33.953 39.03 32.833 40.411 32.833C41.792 32.833 42.911 33.953 42.911 35.333Z" fill="#5C708E"/>
        <path d="M52.5 84.075C52.5 85.455 51.381 86.575 50.001 86.575C48.62 86.575 47.501 85.455 47.501 84.075C47.501 82.695 48.62 81.575 50.001 81.575C51.381 81.575 52.5 82.695 52.5 84.075Z" fill="#5C708E"/>
        <path d="M52.75 94.825C52.75 96.205 51.631 97.325 50.251 97.325C48.87 97.325 47.751 96.205 47.751 94.825C47.751 93.445 48.87 92.325 50.251 92.325C51.631 92.325 52.75 93.445 52.75 94.825Z" fill="#5C708E"/>
        <path d="M62.088 35.333C62.088 36.713 60.969 37.833 59.588 37.833C58.209 37.833 57.088 36.713 57.088 35.333C57.088 33.953 58.209 32.833 59.588 32.833C60.969 32.833 62.088 33.953 62.088 35.333Z" fill="#5C708E"/>
        <path d="M54.531 46.479C51.607 47.455 48.3911 47.455 45.4711 46.479L44.399 49.68C46.204 50.284 48.102 50.585 50.001 50.585C51.897 50.585 53.793 50.283 55.6 49.68L54.531 46.479Z" fill="#5C708E"/>
        <path d="M26.552 81.575V86.204L26.376 86.555C24.3 90.707 23.202 95.358 23.202 99.999H26.552C26.552 95.874 27.527 91.742 29.376 88.053L29.726 87.35C29.843 87.118 29.904 86.86 29.904 86.6V81.576H26.552V81.575Z" fill="#5C708E"/>
        <path d="M73.623 86.555L73.449 86.204V81.575H70.1V86.6C70.1 86.86 70.161 87.118 70.276 87.35L70.63 88.053C72.478 91.744 73.452 95.874 73.45 100H76.8C76.801 95.357 75.705 90.709 73.623 86.555Z" fill="#5C708E"/>
        <path d="M59.588 27.333C57.088 27.333 54.854 28.491 53.387 30.298C50.368 29.125 48.023 29.51 46.485 30.147C45.018 28.428 42.842 27.333 40.413 27.333C36.007 27.333 32.422 30.922 32.422 35.333C32.422 39.744 36.007 43.333 40.413 43.333C44.818 43.333 48.403 39.744 48.403 35.333C48.403 34.612 48.299 33.916 48.119 33.25C48.949 32.986 50.189 32.872 51.833 33.445C51.686 34.051 51.599 34.681 51.599 35.332C51.599 39.743 55.185 43.332 59.589 43.332C63.995 43.332 67.581 39.743 67.581 35.332C67.581 30.921 63.994 27.333 59.588 27.333ZM40.412 40.133C37.768 40.133 35.617 37.98 35.617 35.333C35.617 32.686 37.768 30.532 40.412 30.532C43.055 30.532 45.207 32.686 45.207 35.333C45.207 37.98 43.055 40.133 40.412 40.133ZM59.588 40.133C56.945 40.133 54.795 37.98 54.795 35.333C54.795 32.686 56.945 30.532 59.588 30.532C62.233 30.532 64.383 32.686 64.383 35.333C64.383 37.98 62.232 40.133 59.588 40.133Z" fill="#5C708E"/>
        <path d="M79.218 68.413C80.972 65.26 81.47 62.22 80.668 59.371C79.754 56.119 77.336 53.826 75.238 52.381C76.154 51.214 77.123 49.505 77.293 47.366C77.49 44.89 76.602 42.442 74.652 40.073C75.875 38.864 76.634 37.186 76.634 35.334C76.634 33.729 76.064 32.254 75.116 31.102C75.559 28.646 75.749 24.346 75.749 22.75C75.75 9.78 64.68 0 50.001 0C35.321 0 24.251 9.78 24.251 22.75C24.251 24.345 24.439 28.647 24.882 31.103C23.935 32.254 23.365 33.728 23.365 35.333C23.365 37.186 24.124 38.863 25.346 40.072C23.397 42.441 22.508 44.889 22.705 47.365C22.877 49.504 23.846 51.213 24.76 52.38C22.662 53.825 20.244 56.118 19.33 59.37C18.53 62.219 19.029 65.26 20.781 68.413C16.54 71.467 13.375 76.249 13.377 81.1V100H16.707V81.1C16.705 75.232 23.088 69.254 28.903 68.52L30.055 68.348C30.784 73.25 32.738 76.48 35.905 77.911C37.154 78.476 38.485 78.703 39.82 78.703C43.966 78.703 48.138 76.512 49.998 75.393C51.859 76.511 56.031 78.703 60.177 78.703C61.511 78.703 62.843 78.475 64.091 77.911C67.257 76.479 69.213 73.25 69.942 68.349L71.097 68.522C76.911 69.254 83.294 75.232 83.292 81.1V100H86.622V81.1C86.624 76.248 83.461 71.467 79.218 68.413ZM73.305 35.333C73.305 37.171 71.813 38.666 69.977 38.666H69.308L69.715 32H69.977C71.812 32 73.305 33.495 73.305 35.333ZM50.001 3.5C62.684 3.5 72.25 11.776 72.25 22.75C72.25 24.132 72.118 26.881 71.89 28.95C71.284 28.768 70.642 28.667 69.977 28.667H69.973V25.916C69.973 21.328 66.241 17.594 61.651 17.594H58.321C57.77 17.594 57.255 17.867 56.946 18.323L56.372 19.167C54.946 21.304 52.563 22.584 50.004 22.587C47.438 22.584 45.053 21.306 43.621 19.155L43.057 18.322C42.746 17.866 42.231 17.593 41.68 17.593H38.35C33.762 17.593 30.03 21.326 30.03 25.915V27.784L30.029 28.666H30.026C29.36 28.666 28.718 28.767 28.112 28.95C27.884 26.881 27.753 24.132 27.753 22.75C27.751 11.776 37.315 3.5 50.001 3.5ZM50.028 70.822C46.287 70.822 43.13 69.535 40.035 66.747C41.983 66.04 43.343 64.178 43.327 62.033V59.785C45.407 60.56 47.65 61 50 61C52.351 61 54.595 60.56 56.676 59.784V62.021C56.659 64.188 58.035 66.066 60.004 66.763C56.897 69.574 53.812 70.822 50.028 70.822ZM50 57.666C41.55 57.666 34.638 51.045 34.266 42.565L33.357 28.677V25.916C33.357 23.163 35.597 20.923 38.349 20.923H40.798L40.857 21.012C42.898 24.078 46.314 25.911 50.002 25.916C53.683 25.911 57.097 24.077 59.132 21.026L59.2 20.923H61.649C64.403 20.923 66.643 23.163 66.643 25.916V28.677L65.733 42.594C65.361 51.045 58.449 57.666 50 57.666ZM30.024 32H30.286L30.693 38.667H30.025C28.188 38.667 26.695 37.172 26.695 35.334C26.694 33.495 28.188 32 30.024 32ZM28.486 65.213C26.903 65.413 25.317 65.916 23.794 66.635C22.542 64.347 22.166 62.222 22.7 60.319C23.573 57.214 26.622 55.206 28.36 54.286C28.885 54.007 29.231 53.476 29.28 52.884C29.331 52.29 29.071 51.708 28.598 51.345C28.577 51.328 26.381 49.613 26.194 47.06C26.069 45.38 26.845 43.617 28.476 41.812C28.975 41.93 29.491 42 30.024 42H30.896L30.941 42.74C31.231 49.308 34.788 54.949 39.997 58.16V62.047C40.002 62.892 39.376 63.609 38.542 63.713L28.486 65.213ZM37.342 74.72C35.33 73.808 34.049 71.481 33.51 67.832L35.802 67.49C38.864 70.804 42.04 72.856 45.562 73.766C42.986 74.907 39.718 75.797 37.342 74.72ZM62.656 74.72C60.284 75.796 57.025 74.912 54.453 73.776C57.981 72.872 61.167 70.82 64.245 67.5L66.488 67.834C65.948 71.48 64.668 73.808 62.656 74.72ZM76.205 66.635C74.681 65.916 73.094 65.412 71.51 65.213L61.459 63.713C60.623 63.609 59.998 62.892 60.004 62.033V58.162C65.213 54.953 68.77 49.319 69.057 42.768L69.104 42H69.977C70.51 42 71.026 41.93 71.523 41.811C73.157 43.615 73.932 45.379 73.807 47.059C73.618 49.612 71.422 51.328 71.409 51.338C70.93 51.697 70.667 52.277 70.714 52.875C70.761 53.473 71.11 54.004 71.642 54.285C73.38 55.205 76.427 57.213 77.3 60.318C77.833 62.222 77.459 64.347 76.205 66.635Z" fill="#5C708E"/>
    </g>
    <defs>
        <clipPath id="clip0">
            <rect width="100" height="100" fill="white"/>
        </clipPath>
    </defs>
</svg>
