<svg width="90" height="100" viewBox="0 0 90 100" fill="none" xmlns="http://www.w3.org/2000/svg">
<path d="M6.40799 60.609C5.35399 60.609 4.24899 60.531 3.09499 60.375C2.51899 60.297 2.01899 59.937 1.76099 59.416C1.50399 58.894 1.52199 58.278 1.80999 57.773C5.06899 52.062 3.69299 47.96 2.36299 43.992C1.25399 40.686 0.107994 37.268 1.93099 33.49C5.80399 25.468 13.988 25.702 17.446 25.87L16.594 29.376C13.274 29.22 7.94799 29.076 5.08299 35.012C3.87899 37.507 4.67399 39.877 5.68099 42.879C6.94199 46.641 8.47599 51.214 6.03499 57.106C9.17799 57.139 11.711 56.417 13.562 54.86C17.509 51.538 17.743 45.218 17.842 42.52L21.34 42.649C21.223 45.811 20.949 53.217 15.815 57.538C13.386 59.581 10.23 60.609 6.40799 60.609Z" fill="#5C708E"/>
<path d="M83.592 60.646C84.646 60.646 85.751 60.568 86.905 60.412C87.481 60.334 87.981 59.974 88.239 59.453C88.496 58.931 88.478 58.315 88.19 57.81C84.931 52.099 86.307 47.997 87.637 44.029C88.746 40.723 89.892 37.305 88.069 33.527C84.196 25.505 76.012 25.739 72.554 25.907L73.406 29.413C76.726 29.257 82.052 29.113 84.917 35.049C86.121 37.544 85.326 39.914 84.319 42.916C83.058 46.678 81.524 51.251 83.965 57.143C80.822 57.176 78.289 56.454 76.438 54.897C72.491 51.575 72.257 45.255 72.158 42.557L68.66 42.686C68.777 45.848 69.051 53.254 74.185 57.575C76.614 59.618 79.77 60.646 83.592 60.646Z" fill="#5C708E"/>
<path d="M80.447 34.246C80.447 29.82 77.007 26.19 72.66 25.87C72.673 26.206 72.685 26.542 72.685 26.881C72.686 12.059 60.626 0 45.803 0H44.301C29.479 0 17.42 12.059 17.42 26.881C17.42 26.542 17.433 26.206 17.445 25.87C13.098 26.19 9.65802 29.82 9.65802 34.246C9.65802 38.814 13.32 42.536 17.861 42.646C20.139 55.175 31.124 64.708 44.3 64.708H45.802C58.98 64.708 69.965 55.176 72.243 42.646C76.785 42.536 80.447 38.814 80.447 34.246ZM13.158 34.246C13.158 31.762 15.021 29.725 17.42 29.404V37.827C17.42 38.252 17.433 38.675 17.452 39.095C15.038 38.788 13.158 36.743 13.158 34.246ZM17.598 40.879C17.6 40.889 17.601 40.899 17.602 40.907C17.601 40.898 17.6 40.889 17.598 40.879ZM69.186 37.827C69.186 50.72 58.697 61.208 45.803 61.208H44.301C31.408 61.208 20.92 50.72 20.92 37.827V26.881C20.92 13.988 31.408 3.5 44.301 3.5H45.803C58.697 3.5 69.186 13.988 69.186 26.881V37.827ZM72.508 40.879C72.506 40.889 72.505 40.899 72.504 40.907C72.505 40.898 72.506 40.889 72.508 40.879ZM72.653 39.095C72.673 38.675 72.685 38.252 72.685 37.827V29.404C75.083 29.724 76.947 31.761 76.947 34.246C76.947 36.743 75.067 38.788 72.653 39.095Z" fill="#5C708E"/>
<path d="M32.854 37.294C34.5109 37.294 35.854 35.9509 35.854 34.294C35.854 32.6372 34.5109 31.294 32.854 31.294C31.1971 31.294 29.854 32.6372 29.854 34.294C29.854 35.9509 31.1971 37.294 32.854 37.294Z" fill="#5C708E"/>
<path d="M57.252 37.294C58.9089 37.294 60.252 35.9509 60.252 34.294C60.252 32.6372 58.9089 31.294 57.252 31.294C55.5952 31.294 54.252 32.6372 54.252 34.294C54.252 35.9509 55.5952 37.294 57.252 37.294Z" fill="#5C708E"/>
<path d="M35.07 60.666V67.646C35.076 68.491 34.449 69.208 33.613 69.312L18.613 71.179C12.737 71.91 8.34102 76.924 8.38602 82.833V100H11.72V82.819C11.689 78.591 14.829 75.007 19.028 74.485L34.03 72.619C36.544 72.306 38.426 70.156 38.405 67.634V60.666H35.07Z" fill="#5C708E"/>
<path d="M71.508 71.262L56.512 69.396C55.673 69.291 55.046 68.577 55.053 67.718V60.666H51.718V67.705C51.699 70.238 53.581 72.388 56.097 72.705L71.097 74.57C75.295 75.093 78.437 78.674 78.403 82.916V100H81.736V82.928C81.78 77.009 77.384 71.99 71.508 71.262Z" fill="#5C708E"/>
<path d="M57.87 71.926L57.783 72.947C57.262 79.543 51.668 84.708 45.053 84.71C38.438 84.708 32.846 79.542 32.321 72.939L32.228 71.845L28.929 72.255L29.01 73.21C29.67 81.52 36.719 88.03 45.055 88.032C53.393 88.03 60.438 81.519 61.096 73.22L61.171 72.337L57.87 71.926Z" fill="#5C708E"/>
<path d="M18.18 100H21.502C21.502 96.07 24.593 73.254 24.593 73.254L21.286 73.584L18.18 100Z" fill="#5C708E"/>
<path d="M68.819 73.584L65.512 73.254C65.512 73.254 68.603 96.07 68.603 100H71.925L68.819 73.584Z" fill="#5C708E"/>
<path d="M71.054 29.376C57.243 29.376 48.163 21.042 45.064 17.496C41.96 21.041 32.866 29.376 19.054 29.376V25.876C34.939 25.876 43.304 14.158 43.61 13.702C43.934 13.218 44.481 12.925 45.065 12.925C45.067 12.925 45.069 12.925 45.071 12.925C45.656 12.927 46.204 13.22 46.526 13.708C46.829 14.16 55.171 25.876 71.054 25.876V29.376Z" fill="#5C708E"/>
<path d="M55.635 45.995C54.838 45.446 53.748 45.649 53.201 46.444C53.107 46.574 50.658 49.906 45.054 49.932C39.45 49.906 37 46.574 36.907 46.444C36.36 45.649 35.27 45.446 34.473 45.995C33.677 46.543 33.476 47.632 34.024 48.429C34.165 48.632 37.538 53.405 45.054 53.432C52.571 53.405 55.944 48.632 56.084 48.429C56.632 47.632 56.431 46.543 55.635 45.995Z" fill="#5C708E"/>
</svg>
