<svg width="100" height="100" viewBox="0 0 100 100" fill="none" xmlns="http://www.w3.org/2000/svg">
    <g clip-path="url(#clip0)">
        <path d="M76.725 69.761L67.903 68.571C69.19 67.637 70.415 66.601 71.563 65.454C74.682 62.334 77.024 58.653 78.499 54.648C83.774 54.254 87.948 49.848 87.948 44.474C87.948 39.74 84.702 35.758 80.321 34.61V29.822C80.32 13.378 66.943 0 50.5 0C34.057 0 20.679 13.378 20.679 29.821V34.609C16.298 35.756 13.052 39.739 13.052 44.473C13.052 49.85 17.23 54.257 22.507 54.648C22.505 54.642 22.503 54.635 22.5 54.629C24.57 60.265 28.29 65.112 33.079 68.572L24.292 69.76C18.297 70.504 13.781 75.624 13.786 81.662V100H17.21V81.66C17.207 78.496 18.945 75.693 21.564 74.208C22.346 75.115 23.398 75.884 24.39 76.598C25.417 77.338 26.698 78.259 26.937 78.908C27.166 79.524 26.762 81.039 26.437 82.256C25.848 84.46 25.181 86.958 26.579 88.799C27.953 90.608 30.512 90.66 32.77 90.706C34.05 90.732 35.644 90.765 36.179 91.172C36.729 91.589 37.205 93.121 37.588 94.353C38.259 96.518 39.021 98.971 41.155 99.761C43.366 100.582 45.552 99.137 47.481 97.865C48.521 97.178 49.814 96.325 50.497 96.325C51.18 96.325 52.473 97.179 53.512 97.865C55.049 98.88 56.748 100.002 58.494 100.002C58.939 100.002 59.389 99.929 59.84 99.762C61.973 98.972 62.736 96.519 63.408 94.353C63.791 93.123 64.267 91.59 64.818 91.172C65.351 90.767 66.945 90.734 68.226 90.709C70.484 90.663 73.042 90.611 74.419 88.801C75.815 86.96 75.149 84.462 74.56 82.258C74.236 81.041 73.831 79.528 74.06 78.911C74.3 78.262 75.581 77.34 76.609 76.599C77.601 75.883 78.654 75.116 79.437 74.206C82.052 75.69 83.792 78.495 83.791 81.663V100H87.213V81.664C87.219 75.624 82.703 70.506 76.725 69.761ZM80.32 44.393V38.269C82.75 39.285 84.461 41.683 84.461 44.474C84.461 47.538 82.399 50.126 79.59 50.934C80.066 48.809 80.32 46.619 80.32 44.393ZM16.539 44.474C16.539 41.683 18.25 39.284 20.68 38.269V44.393C20.68 46.642 20.943 48.829 21.417 50.935C18.604 50.13 16.539 47.541 16.539 44.474ZM21.899 52.801C21.901 52.809 21.903 52.817 21.905 52.824C21.903 52.816 21.901 52.809 21.899 52.801ZM24.166 44.393V29.821C24.166 15.3 35.979 3.486 50.5 3.486C65.019 3.486 76.833 15.299 76.833 29.821V44.392C76.833 51.393 74.085 57.997 69.097 62.988C64.107 67.978 57.503 70.726 50.5 70.726C35.979 70.727 24.166 58.913 24.166 44.393ZM61.635 72.05C60.254 76.831 55.42 80.918 50.499 80.918C45.577 80.918 40.745 76.829 39.364 72.048C42.807 73.44 46.564 74.213 50.501 74.213C54.375 74.213 58.139 73.466 61.635 72.05ZM74.572 73.769C73.013 74.891 71.402 76.053 70.791 77.697C70.178 79.354 70.695 81.287 71.193 83.156C71.498 84.298 72.007 86.21 71.642 86.692C71.287 87.158 69.326 87.198 68.156 87.221C66.185 87.26 64.146 87.301 62.709 88.393C61.27 89.487 60.664 91.434 60.08 93.317C59.732 94.431 59.152 96.297 58.629 96.492C58.07 96.683 56.42 95.606 55.434 94.955C53.856 93.914 52.225 92.837 50.497 92.837C48.768 92.837 47.138 93.914 45.561 94.955C44.573 95.606 42.918 96.685 42.366 96.492C41.842 96.298 41.263 94.432 40.917 93.318C40.333 91.435 39.727 89.487 38.288 88.394C36.851 87.301 34.813 87.259 32.842 87.22C31.671 87.196 29.711 87.156 29.356 86.691C28.99 86.209 29.501 84.297 29.806 83.156C30.306 81.286 30.822 79.353 30.208 77.696C29.599 76.051 27.987 74.89 26.429 73.768C26.156 73.572 25.812 73.322 25.465 73.056L35.706 71.672C36.959 78.486 43.55 84.404 50.5 84.404C57.451 84.404 64.042 78.486 65.296 71.673L75.54 73.055C75.191 73.321 74.846 73.572 74.572 73.769Z" fill="#5C708E"/>
        <path d="M34.567 39.911C36.3619 39.911 37.817 38.4559 37.817 36.661C37.817 34.8661 36.3619 33.411 34.567 33.411C32.7721 33.411 31.317 34.8661 31.317 36.661C31.317 38.4559 32.7721 39.911 34.567 39.911Z" fill="#5C708E"/>
        <path d="M66.432 39.911C68.2269 39.911 69.682 38.4559 69.682 36.661C69.682 34.8661 68.2269 33.411 66.432 33.411C64.6371 33.411 63.182 34.8661 63.182 36.661C63.182 38.4559 64.6371 39.911 66.432 39.911Z" fill="#5C708E"/>
        <path d="M53 44.587H48C47.034 44.587 46.25 43.804 46.25 42.837C46.25 41.87 47.034 41.087 48 41.087H53C53.967 41.087 54.75 41.87 54.75 42.837C54.75 43.804 53.967 44.587 53 44.587Z" fill="#5C708E"/>
        <path d="M38.75 50.702V52.452C38.75 58.381 44.572 63.204 50.499 63.204C56.428 63.204 62.25 58.381 62.25 52.452V50.702H38.75ZM50.499 59.704C47.104 59.704 43.248 57.358 42.463 54.202H48.75V57.171H52.25V54.202H58.537C57.752 57.358 53.895 59.704 50.499 59.704Z" fill="#5C708E"/>
        <path d="M43.567 25.172C41.537 25.172 39.589 24.271 37.776 22.493C36.092 20.842 35.328 18.775 35.565 16.517C36.39 8.67304 49.344 0.356037 49.475 0.273037C50.041 -0.0889632 50.764 -0.0909632 51.335 0.262037C51.468 0.343037 64.511 8.51104 65.423 16.35C65.687 18.606 64.944 20.681 63.28 22.351C61.464 24.171 59.501 25.093 57.444 25.093C54.405 25.093 52.005 23.065 50.523 21.507C49.048 23.096 46.642 25.172 43.567 25.172ZM50.426 3.84104C46.387 6.61504 39.506 12.515 39.047 16.883C38.92 18.091 39.295 19.079 40.227 19.994C41.363 21.107 42.486 21.672 43.567 21.672C45.853 21.672 47.872 19.27 48.842 18.115C48.982 17.949 49.102 17.806 49.201 17.695C49.531 17.323 50.003 17.11 50.5 17.107C50.979 17.084 51.471 17.312 51.804 17.68C51.904 17.79 52.025 17.931 52.167 18.095C53.142 19.231 55.173 21.593 57.444 21.593C58.538 21.593 59.667 21.017 60.801 19.879C61.723 18.954 62.086 17.962 61.946 16.755C61.439 12.39 54.494 6.56804 50.426 3.84104Z" fill="#5C708E"/>
    </g>
    <defs>
        <clipPath id="clip0">
            <rect width="75" height="100" fill="white" transform="translate(13)"/>
        </clipPath>
    </defs>
</svg>
