<svg width="35" height="35" viewBox="0 0 35 35" fill="none" xmlns="http://www.w3.org/2000/svg">
<path d="M24.795 24.452C25.02 24.673 25.351 24.775 25.662 24.717C25.722 24.701 25.786 24.684 25.841 24.658C25.901 24.635 25.954 24.601 26.007 24.572C26.062 24.536 26.106 24.497 26.153 24.452C26.331 24.275 26.434 24.027 26.434 23.773C26.434 23.52 26.33 23.275 26.153 23.095C26.105 23.05 26.061 23.009 26.007 22.98C25.954 22.943 25.901 22.914 25.841 22.886C25.786 22.865 25.722 22.845 25.662 22.831C25.6 22.819 25.536 22.813 25.475 22.813C25.222 22.813 24.974 22.915 24.794 23.094C24.616 23.274 24.517 23.519 24.517 23.772C24.518 24.027 24.617 24.275 24.795 24.452Z" fill="#3E5271"/>
<path d="M18.7099 29.279C18.7209 29.34 18.7399 29.399 18.7629 29.455C18.7849 29.516 18.8169 29.572 18.8509 29.623C18.8869 29.674 18.9229 29.725 18.9699 29.769C19.0139 29.811 19.0659 29.853 19.1179 29.888C19.1669 29.918 19.2249 29.952 19.2809 29.976C19.3399 29.999 19.3989 30.017 19.4629 30.032C19.5849 30.057 19.7099 30.057 19.8369 30.032C19.8969 30.017 19.9589 30 20.0149 29.976C20.0759 29.953 20.1299 29.918 20.1809 29.888C20.2329 29.853 20.2819 29.811 20.3269 29.769C20.3699 29.724 20.4109 29.673 20.4449 29.623C20.4809 29.572 20.5079 29.516 20.5349 29.455C20.5579 29.399 20.5789 29.34 20.5899 29.279C20.6019 29.218 20.6099 29.152 20.6099 29.091C20.6099 29.027 20.6019 28.968 20.5899 28.903C20.5789 28.843 20.5589 28.784 20.5349 28.723C20.5089 28.664 20.4809 28.61 20.4449 28.555C20.4109 28.506 20.3699 28.454 20.3269 28.41C20.2819 28.367 20.2329 28.326 20.1809 28.296C20.1299 28.26 20.0759 28.23 20.0149 28.203C19.9589 28.182 19.8969 28.161 19.8369 28.148C19.7739 28.137 19.7099 28.13 19.6489 28.13C19.5869 28.13 19.5229 28.137 19.4629 28.148C19.3999 28.161 19.3399 28.182 19.2809 28.203C19.2249 28.229 19.1689 28.26 19.1179 28.296C19.0649 28.326 19.0149 28.367 18.9699 28.41C18.9289 28.454 18.8869 28.506 18.8509 28.555C18.8169 28.61 18.7859 28.664 18.7629 28.723C18.7369 28.784 18.7209 28.843 18.7079 28.903C18.6929 28.967 18.6899 29.026 18.6899 29.091C18.6899 29.152 18.6929 29.219 18.7099 29.279Z" fill="#3E5271"/>
<path d="M15.338 6.583C15.559 6.808 15.893 6.909 16.202 6.849C16.262 6.834 16.324 6.816 16.382 6.793C16.441 6.768 16.495 6.735 16.548 6.703C16.6 6.666 16.65 6.628 16.695 6.583C16.736 6.54 16.778 6.49 16.809 6.435C16.847 6.388 16.876 6.331 16.901 6.272C16.923 6.214 16.942 6.154 16.955 6.094C16.968 6.032 16.975 5.968 16.975 5.906C16.975 5.654 16.871 5.409 16.696 5.225C16.514 5.049 16.266 4.948 16.015 4.948C15.955 4.948 15.893 4.953 15.828 4.965C15.766 4.98 15.706 4.995 15.65 5.023C15.59 5.045 15.536 5.073 15.483 5.109C15.431 5.142 15.384 5.184 15.337 5.225C15.294 5.274 15.253 5.322 15.215 5.372C15.184 5.426 15.152 5.483 15.129 5.537C15.105 5.597 15.086 5.66 15.075 5.72C15.062 5.78 15.054 5.843 15.054 5.906C15.057 6.159 15.159 6.405 15.338 6.583Z" fill="#3E5271"/>
<path d="M10.501 18.035C10.515 18.097 10.533 18.156 10.556 18.211C10.578 18.272 10.611 18.33 10.643 18.381C10.677 18.435 10.716 18.482 10.762 18.525C10.805 18.57 10.856 18.61 10.909 18.649C10.959 18.68 11.018 18.711 11.076 18.736C11.134 18.758 11.193 18.777 11.256 18.786C11.379 18.815 11.505 18.815 11.631 18.786C11.694 18.777 11.754 18.759 11.809 18.736C11.87 18.711 11.923 18.68 11.976 18.649C12.03 18.61 12.075 18.57 12.121 18.525C12.166 18.482 12.205 18.435 12.24 18.381C12.275 18.33 12.304 18.272 12.329 18.211C12.353 18.156 12.374 18.098 12.385 18.035C12.397 17.975 12.402 17.909 12.402 17.847C12.402 17.784 12.397 17.724 12.385 17.66C12.374 17.6 12.353 17.537 12.329 17.48C12.305 17.42 12.275 17.367 12.24 17.312C12.206 17.261 12.166 17.214 12.121 17.169C12.075 17.124 12.03 17.081 11.976 17.05C11.923 17.012 11.87 16.986 11.809 16.962C11.754 16.937 11.694 16.917 11.631 16.907C11.568 16.892 11.505 16.887 11.443 16.887C11.381 16.887 11.319 16.891 11.256 16.907C11.194 16.917 11.134 16.937 11.076 16.962C11.019 16.985 10.962 17.012 10.909 17.05C10.856 17.081 10.808 17.124 10.762 17.169C10.72 17.214 10.678 17.261 10.643 17.312C10.608 17.367 10.58 17.42 10.556 17.48C10.533 17.54 10.514 17.6 10.501 17.66C10.487 17.723 10.483 17.784 10.483 17.847C10.484 17.909 10.488 17.976 10.501 18.035Z" fill="#3E5271"/>
<path d="M28.132 17.44C27.622 17.44 27.143 17.242 26.78 16.881L21.687 11.788C21.326 11.428 21.127 10.946 21.129 10.433C21.131 9.923 21.33 9.442 21.691 9.08C22.416 8.356 23.678 8.353 24.401 9.076L29.493 14.168C29.854 14.531 30.053 15.012 30.052 15.524C30.051 16.036 29.851 16.516 29.489 16.877C29.128 17.24 28.646 17.44 28.132 17.44ZM23.051 9.956C22.922 9.956 22.801 10.006 22.711 10.097C22.618 10.188 22.568 10.309 22.568 10.438C22.568 10.564 22.615 10.683 22.705 10.771L27.798 15.864C27.977 16.042 28.292 16.04 28.472 15.861C28.563 15.77 28.614 15.65 28.614 15.522C28.614 15.394 28.565 15.275 28.475 15.186L23.384 10.094C23.294 10.005 23.177 9.956 23.051 9.956Z" fill="#3E5271"/>
<path d="M11.951 29.066C11.44 29.066 10.96 28.868 10.6 28.507L5.508 23.415C5.147 23.054 4.947 22.573 4.948 22.061C4.949 21.549 5.148 21.069 5.51 20.706C6.236 19.981 7.497 19.981 8.219 20.702L13.311 25.795C14.056 26.54 14.054 27.755 13.308 28.503C12.946 28.866 12.464 29.066 11.951 29.066ZM6.868 21.583C6.74 21.583 6.618 21.633 6.527 21.725C6.437 21.815 6.387 21.936 6.387 22.063C6.387 22.192 6.436 22.309 6.525 22.399L11.617 27.491C11.794 27.669 12.111 27.669 12.291 27.489C12.478 27.301 12.479 26.998 12.295 26.813L7.203 21.721C7.113 21.631 6.995 21.583 6.868 21.583Z" fill="#3E5271"/>
<path d="M16.816 25.609C16.311 25.609 15.83 25.408 15.461 25.041C15.097 24.677 14.898 24.193 14.897 23.679C14.896 23.163 15.094 22.68 15.457 22.32L20.548 17.228C21.275 16.505 22.536 16.509 23.26 17.232C23.62 17.594 23.821 18.076 23.821 18.589C23.82 19.101 23.621 19.58 23.261 19.94L18.17 25.042C17.803 25.408 17.322 25.609 16.816 25.609ZM21.899 18.107C21.772 18.107 21.652 18.156 21.564 18.244L16.472 23.336C16.383 23.426 16.334 23.547 16.334 23.678C16.334 23.809 16.385 23.932 16.476 24.023C16.572 24.118 16.693 24.172 16.814 24.172H16.816C16.937 24.172 17.056 24.119 17.151 24.024L22.242 18.923C22.332 18.834 22.381 18.715 22.381 18.588C22.381 18.459 22.331 18.338 22.24 18.248C22.149 18.158 22.028 18.107 21.899 18.107Z" fill="#3E5271"/>
<path d="M15.098 13.773H7.89801C6.84301 13.773 5.98401 12.913 5.98401 11.855C5.98401 10.797 6.84301 9.93799 7.89801 9.93799H15.098C16.154 9.93799 17.012 10.798 17.012 11.855C17.012 12.912 16.153 13.773 15.098 13.773ZM7.89801 11.375C7.63601 11.375 7.42201 11.59 7.42201 11.854C7.42201 12.119 7.63501 12.333 7.89801 12.333H15.098C15.361 12.333 15.574 12.118 15.574 11.854C15.574 11.59 15.361 11.375 15.098 11.375H7.89801Z" fill="#3E5271"/>
<path d="M17.5 35C7.851 35 0 27.149 0 17.5C0 7.851 7.851 0 17.5 0C27.15 0 35 7.851 35 17.5C35 27.149 27.15 35 17.5 35ZM17.5 1.438C8.644 1.438 1.438 8.644 1.438 17.5C1.438 26.356 8.644 33.562 17.5 33.562C26.356 33.562 33.562 26.356 33.562 17.5C33.562 8.644 26.356 1.438 17.5 1.438Z" fill="#3E5271"/>
</svg>
