<svg width="35" height="35" viewBox="0 0 35 35" fill="none" xmlns="http://www.w3.org/2000/svg">
<path d="M17.5 11.212C15.676 11.212 14.192 12.696 14.192 14.52C14.192 16.345 15.676 17.829 17.5 17.829C19.324 17.829 20.809 16.345 20.809 14.52C20.809 12.696 19.324 11.212 17.5 11.212ZM17.5 16.39C16.469 16.39 15.63 15.551 15.63 14.52C15.63 13.489 16.469 12.65 17.5 12.65C18.531 12.65 19.37 13.489 19.37 14.52C19.37 15.551 18.531 16.39 17.5 16.39Z" fill="#3E5271"/>
<path d="M17.5 0C7.85 0 0 7.851 0 17.5C0 27.15 7.85 35 17.5 35C27.15 35 35 27.15 35 17.5C35 7.851 27.15 0 17.5 0ZM1.438 17.5C1.438 16.327 1.572 15.186 1.813 14.083L4.499 20.66C4.606 20.922 4.858 21.096 5.141 21.105L8.126 21.207L11.057 26.011L9.054 27.748C8.861 27.916 8.77 28.175 8.819 28.425L9.372 31.328C4.632 28.532 1.438 23.389 1.438 17.5ZM27.442 30.091C24.704 32.257 21.254 33.562 17.5 33.562C15.184 33.562 12.985 33.059 10.994 32.172L10.308 28.564L12.458 26.7C12.723 26.471 12.784 26.082 12.601 25.783L9.151 20.128C9.025 19.921 8.803 19.791 8.562 19.784L5.654 19.684L2.47 11.888C4.753 5.795 10.619 1.438 17.5 1.438C20.756 1.438 23.785 2.418 26.319 4.09L25.412 6.354L22.902 6.362C22.713 6.362 22.53 6.438 22.396 6.571L20.565 8.395C19.639 7.936 18.602 7.67 17.501 7.67C13.674 7.67 10.56 10.793 10.56 14.631C10.56 14.65 10.651 16.733 11.199 17.771C12.459 20.673 15.517 25.797 16.666 26.92C16.88 27.121 17.15 27.325 17.518 27.325C17.916 27.325 18.185 27.08 18.353 26.925C18.78 26.498 19.463 25.531 20.217 24.341H24.387L27.443 27.641V30.091H27.442ZM17.509 25.722C16.451 24.506 13.706 19.938 12.494 17.152C12.155 16.506 12.005 14.919 11.998 14.633C11.998 11.588 14.466 9.11 17.5 9.11C20.533 9.11 23.001 11.588 23.001 14.632C23.001 14.646 22.981 16.144 22.504 17.158C21.333 19.875 18.573 24.479 17.509 25.722ZM28.881 28.82V27.361C28.881 27.179 28.813 27.005 28.69 26.872L25.231 23.135C25.094 22.988 24.903 22.905 24.703 22.905H21.099C22.153 21.131 23.208 19.16 23.816 17.75C24.433 16.439 24.44 14.651 24.44 14.633C24.44 12.428 23.411 10.463 21.811 9.186L23.203 7.801L25.903 7.792C26.198 7.791 26.461 7.612 26.569 7.34L27.518 4.966C31.197 7.912 33.562 12.432 33.562 17.5C33.562 21.913 31.771 25.915 28.881 28.82Z" fill="#3E5271"/>
</svg>
